<svg id="Layer_1" data-name="Layer 1" xmlns="http://www.w3.org/2000/svg" viewBox="0 0 717.1 716.99"><defs><style>.cls-1{fill:#fff;}</style></defs><path class="cls-1" d="M833,733.09C750.72,516.16,488.9,432.87,296.3,562.62c-7.17,4.83-11.36,4.45-17.85-.57-25.79-19.94-51.79-39.77-80.37-55.57-28.42-15.71-59.12,2.8-59.15,35.09q-.12,163.38,0,326.75a295.44,295.44,0,0,0,5.93,58.32c34.37,170.38,176.86,288.64,350.4,291.13a362.85,362.85,0,0,0,62.13-4.92C778.13,1176.7,912.42,942.75,833,733.09ZM707.22,803.27Q602.67,908.9,497,1013.35c-28,27.6-69.68,26.7-97.84-1q-55.86-54.84-110.73-110.68C267,880.09,261.18,850.33,273.29,824,285.85,796.61,307.7,782.57,334,782c22.86,0,39,6.89,52.33,20,18.3,18,36.71,36,54.36,54.61,6.37,6.73,9.63,6.38,16-.09q74.36-75.26,149.51-149.72c34.27-33.88,86.19-27.5,110.94,13A68,68,0,0,1,707.22,803.27Z" transform="translate(-138.9 -500.79)"/></svg>