<?xml version="1.0" standalone="no"?>
<!DOCTYPE svg PUBLIC "-//W3C//DTD SVG 20010904//EN"
 "http://www.w3.org/TR/2001/REC-SVG-20010904/DTD/svg10.dtd">
<svg version="1.0" xmlns="http://www.w3.org/2000/svg"
 width="512.000000pt" height="512.000000pt" viewBox="0 0 512.000000 512.000000"
 preserveAspectRatio="xMidYMid meet">

<g transform="translate(0.000000,512.000000) scale(0.100000,-0.100000)"
fill="#038b8b" stroke="none">
<path d="M2476 4929 l-199 -101 134 -134 c74 -74 137 -133 141 -132 3 2 84 79
178 172 l171 169 -47 48 c-55 56 -98 79 -146 78 -21 0 -103 -35 -232 -100z"/>
<path d="M3246 4739 c-86 -20 -149 -67 -316 -234 l-164 -164 100 -103 c166
-174 219 -290 218 -483 0 -77 -5 -128 -18 -170 -56 -187 -195 -338 -371 -406
l-80 -31 -17 -52 c-54 -167 -217 -330 -384 -383 -49 -15 -52 -18 -67 -67 -52
-164 -206 -322 -372 -381 -62 -22 -68 -28 -90 -90 -101 -282 -416 -456 -709
-390 -128 28 -223 84 -348 204 l-110 105 -259 -260 -259 -260 0 -69 0 -70 673
-673 c717 -718 700 -703 784 -688 34 7 91 60 513 481 l475 473 190 5 c262 8
376 35 542 128 70 39 135 100 666 629 644 641 635 630 660 774 29 171 -66 367
-218 447 -32 17 -43 29 -39 39 3 8 11 44 17 79 29 171 -64 361 -216 441 -30
16 -45 30 -42 39 3 7 10 44 17 83 22 134 -23 269 -122 368 -43 43 -108 88
-137 96 -1 0 5 35 13 79 20 95 8 187 -33 272 -89 182 -297 279 -497 232z"/>
<path d="M1749 4707 c-142 -40 -228 -143 -237 -284 -6 -96 11 -152 69 -230
l48 -63 -42 22 c-58 29 -168 36 -234 14 -182 -60 -270 -264 -190 -439 13 -30
56 -86 100 -133 l76 -80 -52 25 c-109 54 -263 25 -354 -66 -66 -66 -88 -123
-88 -228 1 -114 19 -153 123 -265 l76 -82 -44 23 c-64 34 -204 34 -271 1 -63
-31 -127 -97 -158 -162 -34 -73 -35 -181 -2 -255 32 -72 333 -375 405 -407 70
-31 191 -32 258 -1 175 80 244 298 146 460 l-20 33 49 -25 c130 -68 288 -42
385 63 62 67 83 122 83 217 0 70 -4 89 -30 141 l-30 60 55 -31 c49 -27 64 -30
140 -30 66 0 96 5 132 22 70 32 131 94 163 164 24 54 27 71 23 143 -2 64 -9
93 -29 133 l-27 50 42 -22 c127 -70 289 -44 388 63 60 65 82 123 83 212 0 139
7 130 -404 543 -279 280 -378 374 -416 392 -61 30 -153 40 -216 22z"/>
<path d="M4065 1579 c-281 -280 -540 -535 -577 -565 -132 -109 -296 -193 -460
-236 -46 -12 -85 -23 -88 -25 -2 -2 144 -152 325 -334 352 -351 362 -359 442
-345 34 7 108 78 711 679 718 718 703 700 688 784 -7 33 -41 71 -264 296 -141
141 -259 257 -262 257 -3 0 -235 -230 -515 -511z"/>
</g>
</svg>
