<?xml version="1.0" standalone="no"?>
<!DOCTYPE svg PUBLIC "-//W3C//DTD SVG 20010904//EN"
 "http://www.w3.org/TR/2001/REC-SVG-20010904/DTD/svg10.dtd">
<svg version="1.0" xmlns="http://www.w3.org/2000/svg"
 width="50.000000pt" height="50.000000pt" viewBox="0 0 50.000000 50.000000"
 preserveAspectRatio="xMidYMid meet">

<g transform="translate(0.000000,50.000000) scale(0.100000,-0.100000)"
fill="#ffffff" stroke="none">
<path d="M130 370 l0 -110 65 0 c62 0 65 -1 65 -24 0 -14 -4 -27 -9 -30 -5 -3
-12 -22 -15 -41 -8 -41 -30 -55 -88 -55 -55 0 -68 -13 -68 -67 l0 -43 75 0 75
0 0 29 c0 19 8 34 24 45 29 18 56 120 37 139 -6 6 -11 19 -11 29 0 15 9 18 65
18 l65 0 0 110 0 110 -140 0 -140 0 0 -110z m150 20 c0 -22 -4 -40 -10 -40 -5
0 -10 18 -10 40 0 22 5 40 10 40 6 0 10 -18 10 -40z m0 -70 c0 -5 -4 -10 -10
-10 -5 0 -10 5 -10 10 0 6 5 10 10 10 6 0 10 -4 10 -10z"/>
<path d="M117 212 c-33 -36 -8 -92 40 -92 25 0 53 30 53 57 0 46 -62 69 -93
35z"/>
</g>
</svg>
